<?xml version="1.0" encoding="utf-8"?><!-- Uploaded to: SVG Repo, www.svgrepo.com, Generator: SVG Repo Mixer Tools -->
<svg fill="#000000" width="800px" height="800px" viewBox="0 0 24 24" id="xrp-square" data-name="Flat Color" xmlns="http://www.w3.org/2000/svg" class="icon flat-color"><rect id="primary" x="2" y="2" width="20" height="20" rx="2" style="fill: rgb(0, 0, 0);"></rect><path id="secondary" d="M12,11a2,2,0,0,1-1.47-.64L8,7.68A1,1,0,0,1,9.48,6.32L12,9l2.53-2.68A1,1,0,1,1,16,7.68l-2.51,2.68A2,2,0,0,1,12,11Zm3.93,6.73A1,1,0,0,0,16,16.32l-2.51-2.68a2.07,2.07,0,0,0-2.94,0L8,16.32a1,1,0,1,0,1.46,1.36L12,15l2.51,2.68a1,1,0,0,0,.73.32A1,1,0,0,0,15.93,17.73Z" style="fill: rgb(44, 169, 188);"></path></svg>